<svg width="45" height="45" viewBox="0 0 45 45" fill="none" xmlns="http://www.w3.org/2000/svg">
<rect width="45" height="45" fill="#3E3E3D"/>
<path d="M23.25 8.27344V14H22.0195V9.66406C21.9518 9.72396 21.8711 9.78125 21.7773 9.83594C21.6862 9.88802 21.5885 9.9362 21.4844 9.98047C21.3802 10.0221 21.2721 10.0586 21.1602 10.0898C21.0482 10.1185 20.9375 10.1393 20.8281 10.1523V9.11328C21.1484 9.01953 21.4505 8.89974 21.7344 8.75391C22.0182 8.60807 22.2747 8.44792 22.5039 8.27344H23.25Z" fill="white"/>
<path d="M21.6758 34.9766H24.0508V36H20.3242V35.5781C20.3242 35.2917 20.3724 35.0352 20.4688 34.8086C20.5651 34.5794 20.6862 34.375 20.832 34.1953C20.9779 34.013 21.1367 33.8529 21.3086 33.7148C21.4831 33.5742 21.6484 33.4479 21.8047 33.3359C21.9688 33.2188 22.112 33.1068 22.2344 33C22.3594 32.8932 22.4635 32.7878 22.5469 32.6836C22.6328 32.5768 22.6966 32.4701 22.7383 32.3633C22.7799 32.2539 22.8008 32.138 22.8008 32.0156C22.8008 31.776 22.7331 31.5951 22.5977 31.4727C22.4622 31.3503 22.2552 31.2891 21.9766 31.2891C21.4948 31.2891 21.0339 31.4805 20.5938 31.8633V30.7773C21.0807 30.4622 21.6302 30.3047 22.2422 30.3047C22.526 30.3047 22.7799 30.3424 23.0039 30.418C23.2305 30.4909 23.4219 30.5964 23.5781 30.7344C23.7344 30.8724 23.8529 31.0404 23.9336 31.2383C24.0169 31.4336 24.0586 31.6523 24.0586 31.8945C24.0586 32.1523 24.0182 32.3815 23.9375 32.582C23.8594 32.7826 23.7539 32.9648 23.6211 33.1289C23.4909 33.293 23.3398 33.444 23.168 33.582C22.9961 33.7174 22.8177 33.849 22.6328 33.9766C22.5078 34.0651 22.3867 34.1536 22.2695 34.2422C22.1549 34.3281 22.0534 34.4141 21.9648 34.5C21.8763 34.5833 21.806 34.6654 21.7539 34.7461C21.7018 34.8268 21.6758 34.9036 21.6758 34.9766Z" fill="white"/>
</svg>
