<svg version="1.0" xmlns="http://www.w3.org/2000/svg"
 width="447.000000pt" height="448.000000pt" viewBox="0 0 447.000000 448.000000"
 preserveAspectRatio="xMidYMid meet">

<g transform="translate(0.000000,448.000000) scale(0.100000,-0.100000)"
fill="#000000" stroke="none">
<path d="M2 3943 l3 -538 538 -3 537 -2 0 540 0 540 -540 0 -540 0 2 -537z
m926 0 l2 -383 -385 0 -385 0 0 385 0 385 383 -2 382 -3 3 -382z"/>
<path d="M310 3940 l0 -230 230 0 230 0 0 230 0 230 -230 0 -230 0 0 -230z"/>
<path d="M1390 4405 l0 -74 -77 -3 -78 -3 0 -75 0 -75 78 -3 77 -3 0 -74 0
-75 -80 0 -80 0 0 -75 0 -75 155 0 155 0 2 -232 3 -233 75 0 75 0 3 233 2 232
75 0 75 0 0 -80 0 -80 75 0 75 0 0 -75 0 -75 -75 0 -75 0 0 -230 0 -230 75 0
75 0 0 -80 0 -80 -150 0 -150 0 0 -75 0 -75 -80 0 -80 0 0 155 0 155 80 0 80
0 0 75 0 75 -385 0 -385 0 0 -75 0 -75 -80 0 -80 0 0 75 0 75 -385 0 -385 0 0
-155 0 -155 75 0 75 0 0 -75 0 -75 -75 0 -75 0 2 -307 3 -308 75 0 75 0 3 78
3 77 74 0 75 0 0 -80 0 -80 75 0 75 0 0 -75 0 -75 -75 0 -75 0 0 -75 0 -75
-155 0 -155 0 0 -310 0 -311 78 3 77 3 3 228 2 227 75 0 75 0 0 80 0 80 155 0
155 0 0 150 0 150 -80 0 -80 0 0 155 0 155 -75 0 -75 0 0 80 0 80 -75 0 -75 0
0 75 0 75 75 0 75 0 0 75 0 75 155 0 155 0 0 -75 0 -75 -80 0 -80 0 0 -75 0
-74 78 -3 77 -3 3 -77 3 -78 74 0 75 0 0 -75 0 -75 80 0 80 0 0 -80 0 -80 75
0 75 0 0 -75 0 -75 -75 0 -75 0 0 -75 0 -75 -80 0 -80 0 0 -155 0 -155 -75 0
-75 0 0 -75 0 -75 -155 0 -155 0 0 -80 0 -80 155 0 155 0 0 80 0 80 75 0 75 0
0 -80 0 -80 155 0 155 0 0 80 0 80 -75 0 -75 0 0 75 0 75 150 0 150 0 2 -307
3 -308 78 -3 77 -3 0 -74 0 -75 -80 0 -80 0 2 -382 3 -383 308 -3 307 -2 0
155 0 155 75 0 75 0 0 75 0 75 -150 0 -150 0 0 -75 0 -75 -80 0 -80 0 0 -75 0
-75 -75 0 -75 0 0 150 0 150 75 0 75 0 0 80 0 80 80 0 80 0 0 305 0 305 75 0
75 0 0 -75 0 -75 75 0 75 0 0 -80 0 -80 -75 0 -75 0 0 -150 0 -150 75 0 75 0
0 75 0 75 80 0 80 0 0 -75 0 -75 75 0 75 0 0 75 0 75 80 0 80 0 0 75 0 75 150
0 150 0 0 -75 0 -75 -75 0 -75 0 0 -75 0 -75 -75 0 -74 0 -3 -77 -3 -78 -77
-3 -78 -3 0 -74 0 -75 -75 0 -75 0 0 -75 0 -75 75 0 75 0 0 -80 0 -80 80 0 80
0 0 80 0 80 75 0 75 0 0 -80 0 -80 75 0 75 0 0 80 0 80 -75 0 -75 0 0 230 0
230 75 0 74 0 3 -77 3 -78 78 -3 77 -3 0 -74 0 -75 75 0 75 0 0 -75 0 -75 80
0 80 0 0 -80 0 -81 153 3 152 3 3 152 3 153 74 0 75 0 0 -75 0 -75 155 0 155
0 0 -80 0 -80 75 0 75 0 0 80 0 80 80 0 80 0 0 150 0 150 75 0 75 0 0 80 0 80
-155 0 -155 0 0 75 0 75 -75 0 -75 0 0 75 0 75 75 0 75 0 0 80 0 80 155 0 155
0 0 155 0 155 -75 0 -75 0 0 75 0 75 -80 0 -80 0 0 230 0 230 80 0 80 0 0 75
0 75 -80 0 -80 0 0 235 0 235 80 0 80 0 0 75 0 75 -80 0 -80 0 0 -75 0 -75
-155 0 -155 0 0 230 0 230 80 0 80 0 0 75 0 75 -80 0 -80 0 0 -75 0 -75 -75 0
-75 0 0 75 0 75 -75 0 -75 0 0 -75 0 -75 -80 0 -80 0 0 75 0 75 -155 0 -155 0
0 -75 0 -75 -75 0 -75 0 0 -80 0 -80 75 0 75 0 0 -75 0 -75 -75 0 -75 0 0
-155 0 -156 -77 3 -78 3 -3 78 -3 77 -227 -2 -227 -3 -3 -77 -3 -78 81 0 80 0
0 -75 0 -75 -155 0 -155 0 0 75 0 75 -155 0 -155 0 0 155 0 155 310 0 310 0 0
75 0 75 75 0 75 0 0 80 0 80 75 0 75 0 0 75 0 75 80 0 80 0 0 155 0 156 -77
-3 -78 -3 -3 -152 -3 -153 -74 0 -75 0 0 -75 0 -75 -75 0 -75 0 0 150 0 150
75 0 75 0 0 235 0 235 75 0 74 0 3 -77 3 -78 233 -3 232 -2 0 155 0 155 -80 0
-80 0 0 75 0 75 -75 0 -75 0 0 -75 0 -75 75 0 75 0 0 -75 0 -75 -155 0 -155 0
0 75 0 75 -75 0 -75 0 0 75 0 75 75 0 74 0 3 78 3 77 233 3 232 2 0 75 0 75
-385 0 -385 0 0 -75 0 -75 -80 0 -80 0 0 -80 0 -80 -75 0 -75 0 0 -75 0 -75
-80 0 -80 0 0 -75 0 -75 -75 0 -75 0 0 150 0 150 75 0 75 0 0 80 0 80 80 0 80
0 0 75 0 75 -80 0 -80 0 0 -75 0 -75 -150 0 -149 0 -3 -77 -3 -78 -77 -3 -78
-3 0 156 0 155 -75 0 -75 0 0 -75z m1230 -155 l0 -80 -75 0 -75 0 0 80 0 80
75 0 75 0 0 -80z m-920 -305 l0 -75 -80 0 -80 0 0 75 0 75 80 0 80 0 0 -75z
m768 -157 l3 -78 -156 0 -155 0 0 80 0 81 153 -3 152 -3 3 -77z m-308 -383 l0
-155 -80 0 -80 0 0 155 0 155 80 0 80 0 0 -155z m310 75 l0 -81 -77 3 -78 3
-3 78 -3 77 81 0 80 0 0 -80z m-2160 -460 l0 -80 -75 0 -75 0 0 80 0 80 75 0
75 0 0 -80z m770 0 l0 -80 -75 0 -75 0 0 80 0 80 75 0 75 0 0 -80z m1390 0 l0
-80 -155 0 -155 0 0 80 0 80 155 0 155 0 0 -80z m-1080 -230 l0 -149 -77 -3
-78 -3 -3 -77 -3 -78 81 0 80 0 0 -230 0 -230 155 0 155 0 0 230 0 230 -80 0
-81 0 3 78 3 77 75 0 75 0 3 -77 3 -78 74 0 75 0 0 -75 0 -75 75 0 75 0 0 -80
0 -80 -75 0 -75 0 0 -150 0 -150 75 0 75 0 0 75 0 75 80 0 80 0 0 75 0 75 75
0 75 0 0 -75 0 -75 -75 0 -75 0 0 -75 0 -74 153 -3 152 -3 0 -75 0 -75 -77 -3
-78 -3 0 -74 0 -75 155 0 155 0 0 155 0 155 75 0 75 0 0 75 0 75 -75 0 -75 0
0 75 0 75 -75 0 -75 0 0 80 0 80 75 0 75 0 0 75 0 75 75 0 75 0 0 -75 0 -75
-75 0 -75 0 0 -80 0 -80 155 0 155 0 0 80 0 80 75 0 74 0 3 153 3 152 153 3
152 3 0 74 0 75 -75 0 -75 0 0 75 0 75 75 0 75 0 0 -75 0 -75 80 0 80 0 0 -75
0 -75 150 0 150 0 0 -80 0 -80 80 0 80 0 0 -155 0 -155 75 0 75 0 0 -75 0 -75
-75 0 -75 0 0 -75 0 -75 -155 0 -155 0 0 75 0 75 75 0 75 0 0 230 0 230 -305
0 -305 0 0 -155 0 -155 155 0 155 0 0 80 0 80 75 0 76 0 -3 -77 -3 -78 -72 -3
-73 -3 0 -149 0 -150 -235 0 -235 0 0 75 0 75 80 0 80 0 0 75 0 75 -155 0
-155 0 0 -230 0 -230 75 0 75 0 0 -75 0 -75 80 0 80 0 0 75 0 75 75 0 75 0 0
-150 0 -150 -230 0 -230 0 0 -80 0 -80 75 0 75 0 0 -75 0 -75 -230 0 -230 0 0
155 0 155 -155 0 -155 0 0 -80 0 -80 80 0 80 0 0 -75 0 -75 -80 0 -80 0 0 75
0 75 -230 0 -230 0 0 155 0 155 75 0 75 0 0 75 0 75 -150 0 -149 0 -3 78 -3
77 -152 3 -153 3 0 -81 0 -80 75 0 75 0 0 -75 0 -75 80 0 80 0 0 -75 0 -75
-155 0 -155 0 0 75 0 75 -80 0 -80 0 0 460 0 460 -75 0 -75 0 0 -75 0 -75 -75
0 -75 0 0 75 0 75 75 0 75 0 0 80 0 80 -155 0 -155 0 0 75 0 75 230 0 230 0 0
75 0 75 80 0 80 0 0 -150z m-310 -1000 l0 -80 -75 0 -75 0 0 80 0 80 75 0 75
0 0 -80z m3080 -305 l0 -75 -75 0 -75 0 0 -80 0 -81 -77 3 -78 3 -3 78 -3 77
-149 0 -150 0 0 75 0 75 305 0 305 0 0 -75z m-460 -465 l0 -230 -230 0 -230 0
0 230 0 230 230 0 230 0 0 -230z m-2160 0 l0 -80 -75 0 -75 0 0 80 0 80 75 0
75 0 0 -80z m770 -155 l0 -75 -75 0 -75 0 0 75 0 75 75 0 75 0 0 -75z m-770
-150 l0 -75 -75 0 -75 0 0 75 0 75 75 0 75 0 0 -75z m1540 -80 l0 -155 -75 0
-75 0 0 80 0 80 -80 0 -80 0 0 75 0 75 155 0 155 0 0 -155z m770 -75 l0 -80
-305 0 -305 0 0 80 0 80 305 0 305 0 0 -80z m310 0 l0 -80 -75 0 -75 0 0 80 0
80 75 0 75 0 0 -80z m-1690 -305 l0 -75 -80 0 -80 0 0 75 0 75 80 0 80 0 0
-75z m920 0 l0 -75 -75 0 -75 0 0 75 0 75 75 0 75 0 0 -75z m770 0 l0 -75 -75
0 -75 0 0 75 0 75 75 0 75 0 0 -75z"/>
<path d="M2160 1485 l0 -75 75 0 75 0 0 75 0 75 -75 0 -75 0 0 -75z"/>
<path d="M2770 1485 l0 -75 80 0 80 0 0 75 0 75 -80 0 -80 0 0 -75z"/>
<path d="M3392 1023 l3 -78 75 0 75 0 0 75 0 75 -78 3 -78 3 3 -78z"/>
<path d="M3392 3943 l3 -538 538 -3 537 -2 0 540 0 540 -540 0 -540 0 2 -537z
m926 0 l2 -383 -385 0 -385 0 0 385 0 385 383 -2 382 -3 3 -382z"/>
<path d="M3700 3940 l0 -230 230 0 230 0 0 230 0 230 -230 0 -230 0 0 -230z"/>
<path d="M1232 3558 l3 -153 75 0 75 0 3 153 3 152 -81 0 -81 0 3 -152z"/>
<path d="M3082 3483 l3 -78 75 0 75 0 3 78 3 77 -81 0 -81 0 3 -77z"/>
<path d="M4160 3175 l0 -75 80 0 80 0 0 -80 0 -80 75 0 75 0 0 80 0 80 -75 0
-75 0 0 75 0 75 -80 0 -80 0 0 -75z"/>
<path d="M4320 2405 l0 -75 75 0 75 0 0 75 0 75 -75 0 -75 0 0 -75z"/>
<path d="M4320 1790 l0 -80 75 0 75 0 0 80 0 80 -75 0 -75 0 0 -80z"/>
<path d="M0 560 l0 -540 540 0 540 0 0 540 0 540 -540 0 -540 0 0 -540z m930
0 l0 -380 -385 0 -385 0 0 380 0 380 385 0 385 0 0 -380z"/>
<path d="M310 560 l0 -230 230 0 230 0 0 230 0 230 -230 0 -230 0 0 -230z"/>
<path d="M4320 865 l0 -75 75 0 75 0 0 75 0 75 -75 0 -75 0 0 -75z"/>
</g>
</svg>
