<svg xmlns="http://www.w3.org/2000/svg" width="150" height="150" viewBox="0 0 384 384" style="border:1px solid;border-radius:7px;padding:5px;margin-top:10px" xml:space="preserve"><path d="M304.832 234.036c-16.457 0-32.616-2.574-47.929-7.634-7.503-2.559-16.727-.211-21.306 4.492l-30.224 22.816c-35.051-18.71-56.642-40.294-75.097-75.082l22.145-29.437c5.753-5.745 7.817-14.138 5.344-22.013-5.082-15.393-7.663-31.544-7.663-48.008 0-11.894-9.676-21.57-21.569-21.57H79.17c-11.894 0-21.57 9.676-21.57 21.57 0 136.324 110.907 247.23 247.232 247.23 11.893 0 21.569-9.676 21.569-21.57v-49.225c-.001-11.893-9.677-21.569-21.57-21.569z" data-original="#000000"/></svg>