<svg xmlns="http://www.w3.org/2000/svg" width="74" height="95" viewBox="0 0 74 95">
  <defs>
    <style>
      .cls-1 {
        fill: #fff;
        fill-rule: evenodd;
      }
    </style>
  </defs>
  <path class="cls-1" d="M73.227,77.741c-2.118-6.3-10.561-10.251-16.581-12.9-2.358-1.032-8.887-2.785-9.671-5.754a6.14,6.14,0,0,1-.013-3.045,5.905,5.905,0,0,1-1.112.11H41.928a5.673,5.673,0,1,1,0-11.346H45.85a5.653,5.653,0,0,1,3.515,1.221,25.239,25.239,0,0,0,4.16-.911,35.187,35.187,0,0,0,3.353-11.591C58.158,17.7,48.456,8.441,34.543,10.042c-10.115,1.164-16.158,8.707-16.811,18.417-0.66,9.9,3.009,17.208,6.907,22.57,1.707,2.344,3.5,3.852,3.225,6.677-0.32,3.341-3.892,4.272-6.447,5.3a73.816,73.816,0,0,0-7.828,3.914C8.286,69.847,2.464,73.375,1.156,78.2c-2.9,10.695,6.888,13.935,14.967,15.43,6.933,1.279,14.752,1.38,21.182,1.38,11.632,0,32.548-.466,35.921-9.21a14.563,14.563,0,0,0,0-8.06h0ZM48.332,48.881a2.964,2.964,0,0,0-2.48-1.349H41.93a2.955,2.955,0,1,0,0,5.909h3.922a2.931,2.931,0,0,0,2.607-1.6,26.517,26.517,0,0,0,13.563-4.566,4.87,4.87,0,0,0,2.652.783H64.92a4.93,4.93,0,0,0,4.931-4.936V33.271a4.916,4.916,0,0,0-2.81-4.443,29.853,29.853,0,0,0-59.643,0,4.913,4.913,0,0,0-2.813,4.443v9.853A4.93,4.93,0,0,0,9.512,48.06H9.761a4.931,4.931,0,0,0,4.93-4.936V33.271a4.919,4.919,0,0,0-2.743-4.409,25.3,25.3,0,0,1,50.538,0,4.922,4.922,0,0,0-2.74,4.409v9.853a4.958,4.958,0,0,0,.351,1.833,24.146,24.146,0,0,1-11.766,3.925h0Z"/>
</svg>
