<svg xmlns="http://www.w3.org/2000/svg" version="1.1" xmlns:xlink="http://www.w3.org/1999/xlink" xmlns:svgjs="http://svgjs.com/svgjs" width="512" height="512" x="0" y="0" viewBox="0 0 48 48" style="enable-background:new 0 0 512 512" xml:space="preserve" class=""><g><circle cx="82" cy="56" r="1" transform="translate(-56.039 -30)" fill="#000000" data-original="#000000" class=""></circle><path d="m15.254 14.707 2 2a.999.999 0 0 0 1.414 0l4-4a1 1 0 0 0-1.414-1.414l-3.293 3.293-1.293-1.293a1 1 0 0 0-1.414 1.414zM15.254 24.707l2 2a.999.999 0 0 0 1.414 0l4-4a1 1 0 0 0-1.414-1.414l-3.293 3.293-1.293-1.293a1 1 0 0 0-1.414 1.414zM25.961 13h10a1 1 0 0 0 0-2h-10a1 1 0 0 0 0 2zM25.961 23H30a1 1 0 0 0 0-2h-4.039a1 1 0 0 0 0 2zM25.961 17h6a1 1 0 0 0 0-2h-6a1 1 0 0 0 0 2zM10.961 22V7.5c0-.133.053-.26.146-.354A.504.504 0 0 1 11.461 7H14a1 1 0 0 0 0-2h-2.539a2.5 2.5 0 0 0-2.5 2.5V22a1 1 0 0 0 2 0z" fill="#000000" data-original="#000000" class=""></path><path d="M28.961 5V4a3 3 0 1 0-6 0v1H18a1 1 0 0 0 0 2h22.461a.503.503 0 0 1 .5.5L41 12.009a1 1 0 0 0 2-.018l-.039-4.5c0-.654-.264-1.29-.733-1.759A2.496 2.496 0 0 0 40.461 5zm-2-1a1.002 1.002 0 0 0-1-1 1 1 0 0 0-1 1v1h2zM41 37.994l-.039 6.506c0 .133-.053.26-.146.354a.504.504 0 0 1-.354.146H22a1 1 0 0 0 0 2h18.461a2.5 2.5 0 0 0 2.5-2.5L43 38.006a1 1 0 1 0-2-.012zM5.134 37.068A5.001 5.001 0 0 0 .961 42v2.5a2.5 2.5 0 0 0 2.5 2.5h13a2.5 2.5 0 0 0 2.5-2.5V42a5.002 5.002 0 0 0-4.174-4.932A6.979 6.979 0 0 0 16.961 32c0-3.863-3.137-7-7-7-3.864 0-7 3.137-7 7 0 1.993.834 3.793 2.173 5.068zM14.961 45h1.5a.5.5 0 0 0 .5-.5V42a3 3 0 0 0-3-3h-8a3 3 0 0 0-3 3v2.5a.5.5 0 0 0 .5.5h1.5v-3a1 1 0 0 1 2 0v3h6v-3a1 1 0 0 1 2 0zm-5-18c2.759 0 5 2.24 5 5s-2.241 5-5 5c-2.76 0-5-2.24-5-5s2.24-5 5-5zM40.854 15.732c-1.153 1.153-19.503 19.603-19.503 19.603a.998.998 0 0 0-.29.704v4a1 1 0 0 0 1 1h4a1 1 0 0 0 .709-.295s9.171-9.231 15.247-15.334l.276.276a.499.499 0 0 1 0 .707l-3.879 3.879a2.496 2.496 0 0 0 0 3.535l.94.939a.999.999 0 1 0 1.414-1.414l-.94-.939a.504.504 0 0 1 0-.707l3.879-3.879a2.5 2.5 0 0 0 0-3.535l-.278-.279c1.171-1.176 2.158-2.165 2.839-2.847a2.5 2.5 0 0 0 0-3.535l-1.879-1.879a2.5 2.5 0 0 0-3.535 0zm-4.792 7.642 2.586 2.586c-5.212 5.238-11.576 11.643-13.003 13.079h-2.584v-2.587c1.421-1.431 7.786-7.837 13.001-13.078zm3.997 1.168-2.586-2.585a3732.16 3732.16 0 0 1 4.795-4.811.5.5 0 0 1 .707 0l1.879 1.879a.5.5 0 0 1 0 .707 3076.34 3076.34 0 0 0-4.795 4.81z" fill="#000000" data-original="#000000" class=""></path></g></svg>