<svg xmlns="http://www.w3.org/2000/svg" version="1.1" xmlns:xlink="http://www.w3.org/1999/xlink" xmlns:svgjs="http://svgjs.com/svgjs" width="512" height="512" x="0" y="0" viewBox="0 0 512 512" style="enable-background:new 0 0 512 512" xml:space="preserve" class=""><g><path d="M461 351c0-23.472-19.028-42.5-42.5-42.5h-43.543l30.625-105H468.5c23.472 0 42.5-19.028 42.5-42.5s-19.028-42.5-42.5-42.5h-38.127l18.697-64.102C457.003 27.199 436.604 0 408.271 0c-18.888 0-35.51 12.466-40.798 30.599L341.834 118.5h-91.461l18.697-64.102C277.003 27.199 256.604 0 228.271 0c-18.888 0-35.51 12.466-40.798 30.599L161.834 118.5H93.5C70.028 118.5 51 137.528 51 161s19.028 42.5 42.5 42.5h43.543l-30.625 105H43.5C20.028 308.5 1 327.528 1 351s19.028 42.5 42.5 42.5h38.126L62.93 457.602C54.997 484.801 75.396 512 103.729 512c18.888 0 35.51-12.466 40.799-30.599l25.638-87.901h91.461l-18.696 64.102C234.997 484.801 255.396 512 283.728 512c18.888 0 35.51-12.466 40.799-30.599l25.638-87.901H418.5c23.472 0 42.5-19.028 42.5-42.5zm-174.582-42.5h-91.461l30.625-105h91.461z" fill="#000000" data-original="#000000" class=""></path></g></svg>