<svg xmlns="http://www.w3.org/2000/svg" version="1.1"
                                xmlns:xlink="http://www.w3.org/1999/xlink" xmlns:svgjs="http://svgjs.com/svgjs"
                                width="512" height="512" x="0" y="0" viewBox="0 0 512 512"
                                style="enable-background:new 0 0 512 512" xml:space="preserve" class="">
                                <g>
                                    <path
                                        d="M240.3 512H86.8c-25.7 0-47.5-8.2-63-23.7S.1 450.9.1 425.1C0 313.9 0 213.5.1 118.1.1 92.4 8.4 70.6 24 55.2s37.4-23.6 63.2-23.6h102c12.5 0 22.7 3.7 29.6 10.7 6.2 6.2 9.4 14.8 9.3 24.8-.2 21.2-15.2 34.8-38.4 34.9H87.6c-14 0-17.3 3.3-17.3 17.5v304.8c0 14.1 3.3 17.3 17.4 17.3h304.8c14.1 0 17.4-3.2 17.4-17.4v-102c0-23.2 13.8-38.3 35-38.4h.2c21.3 0 35.1 14.9 35.1 38v9.6c.1 31.3.1 63.7 0 95.5-.1 24.7-8.4 45.9-24 61.3s-36.8 23.6-61.6 23.7H240.3z"
                                        fill="#797878" data-original="#797878" class=""></path>
                                    <path
                                        d="M221.9 322.8c-11.9 0-23.6-7.9-29.1-19.6-6.8-14.5-3.9-30.2 7.8-42.1 14.6-14.8 29.6-29.7 44.1-44.1l15.4-15.3 49.7-49.4c26.7-26.5 53.3-53 79.9-79.6.5-.5 1-1 1.5-1.6-16.2-.3-51.3-.5-70.8-.6-11.1 0-20.5-3.6-27.1-10.4-6.3-6.4-9.6-15.2-9.5-25.3C284 14.1 298.7.2 320.3.1c26.6-.1 53-.1 79.5-.1 26.9 0 51.8 0 76.2.1 21.7 0 35.8 13.9 35.9 35.3.2 53.5.2 106.5 0 157.7-.1 20.6-14.5 35.1-35 35.1s-34.9-14.4-35.1-34.9c-.1-10.5-.2-26.8-.3-42.6-.1-11.6-.1-22.7-.2-30.1-.8.7-1.5 1.4-2.2 2.1-15.4 15.5-30.8 30.9-46.2 46.4-45.4 45.6-92.3 92.8-138.7 138.9-7.2 7-16.2 11.9-25.9 14.2-2.2.4-4.3.6-6.4.6z"
                                        fill="#797878" data-original="#797878" class=""></path>
                                </g>
                            </svg>