<svg xmlns="http://www.w3.org/2000/svg" viewBox="0 0 150 190" style="width:50px; height:90px ">
  <path fill="#ffffff" id="Shape_1_copy_2" data-name="Shape 1 copy 2" class="cls-1" d="M126.989,161.478v-90.7l22.725,10.762v66.274ZM0.14,81.7L22.865,70.781v90.7L0.14,147.816V81.7Zm0-80.551L32.67,29.518,74.912,0.962l42.827,28.525L149.714,1.022V40.251C68,18.631.14,40.251,0.14,40.251V1.146ZM86.289,40.62a273.886,273.886,0,0,1,63.425,9.868v20.2Zm30.895,89.68L106.7,136.653,79.814,120.8V109.3l15.879-9.344V74.881l21.491-5.211V130.3Zm-37.37,34.046,37.37-22.666v25.658l-37.37,22.45V164.346ZM52.588,142.388l22.323-13.137,22.355,13.137L74.911,155.926ZM63.935,94.434V67.2L41.7,61.837,74.911,46.048,108.15,61.837,85.919,67.2V94.434L74.911,100.88ZM70.04,109.3v11.5L43.153,136.653,32.67,130.3V69.67L54.16,74.881V99.954ZM0.14,50.643A272.247,272.247,0,0,1,63.719,40.589L0.14,70.935V50.643Zm69.9,139.145L32.67,167.337V141.68l37.37,22.666v25.442Z"/>
</svg>
