<svg version="1.1" id="Layer_1" xmlns="http://www.w3.org/2000/svg" xmlns:xlink="http://www.w3.org/1999/xlink" x="0px" y="0px" class="light" viewBox="0 0 100 100" enable-background="new 0 0 100 100" xml:space="preserve">
<path fill="#ffffff" d="M16.902,71.89h1.642c-0.484,0.295-0.589,0.884-0.737,1.326l-3.199,10.777h-2.378l-1.831-6.209l-1.979,6.188
	H5.999L2.631,73.258c-0.126-0.442-0.21-0.926-0.758-1.368h3.389c-0.442,0.253-0.4,0.695-0.21,1.284l3.01,9.682l1.979-6.251
	l-0.989-3.389c-0.105-0.4-0.232-0.989-0.737-1.326h3.347c-0.379,0.253-0.358,0.695-0.189,1.284l2.757,9.682l2.884-9.682
	C17.302,72.564,17.407,72.143,16.902,71.89"></path>
                        <path fill="#ffffff" d="M31.025,73.49v8.903c0,0.842,0.126,1.284,0.463,1.6H28.12c0.337-0.295,0.442-0.758,0.442-1.6v-4.778H23.49
	v4.778c0,0.842,0.126,1.284,0.463,1.6h-3.368c0.337-0.295,0.442-0.758,0.442-1.6V73.49c0-0.842-0.105-1.284-0.442-1.6h3.368
	c-0.337,0.295-0.463,0.758-0.463,1.6v3.494h5.073V73.49c0-0.842-0.105-1.284-0.442-1.6h3.368
	C31.151,72.185,31.025,72.648,31.025,73.49"></path>
                        <path fill="#ffffff" d="M36.413,73.469v8.924c0,0.842,0.126,1.284,0.463,1.6h-3.368c0.337-0.295,0.442-0.737,0.442-1.6v-8.924
	c0-0.842-0.105-1.305-0.442-1.6h3.368C36.561,72.185,36.413,72.627,36.413,73.469"></path>
                        <path fill="#ffffff" d="M48.495,73.174c-0.295-0.421-1.031-0.631-1.852-0.631h-1.642v9.851c0,0.842,0.105,1.284,0.442,1.6h-3.368
	c0.337-0.295,0.442-0.758,0.442-1.6l0.021-9.851h-1.726c-0.821,0-1.579,0.21-1.852,0.631h-0.021V71.89h9.577L48.495,73.174
	L48.495,73.174z"></path>
                        <path fill="#ffffff" d="M50.558,83.972c0.337-0.295,0.442-0.758,0.442-1.6v-8.903c0-0.842-0.105-1.284-0.442-1.6h7.914v1.284h-0.021
	c-0.295-0.421-1.031-0.631-1.852-0.631h-3.157v4.504h2.399c0.716,0,1.2-0.105,1.515-0.379v1.368c-0.295-0.274-0.8-0.379-1.515-0.379
	h-2.399v5.662h3.241c0.821,0,1.579-0.21,1.852-0.631h0.042v1.284h-8.019V83.972z"></path>
                        <path fill="#ffffff" d="M60.619,83.972c0.337-0.295,0.442-0.758,0.442-1.6v-8.903c0-0.842-0.126-1.284-0.442-1.6h3.368
	c-0.337,0.295-0.463,0.758-0.463,1.6l0.021,9.851h3.157c0.821,0,1.558-0.21,1.852-0.631h0.042v1.284H60.619z"></path>
                        <path fill="#ffffff" d="M73.521,73.469v8.924c0,0.842,0.126,1.284,0.463,1.6h-3.368c0.337-0.295,0.442-0.737,0.442-1.6v-8.924
	c0-0.842-0.105-1.305-0.442-1.6h3.368C73.648,72.185,73.521,72.627,73.521,73.469"></path>
                        <path fill="#ffffff" d="M82.004,84.077c-3.389,0-5.978-2.463-5.978-6.23c0-3.662,2.589-6.083,5.978-6.083
	c3.368,0,5.978,2.399,5.978,6.083C87.981,81.614,85.393,84.077,82.004,84.077 M82.004,72.437c-1.768,0-3.241,1.473-3.22,5.43
	c0,4.125,1.452,5.578,3.22,5.578c1.768,0,3.22-1.452,3.22-5.578C85.245,73.911,83.772,72.437,82.004,72.437"></path>
                        <path fill="#ffffff" d="M98.379,71.89H100c-0.337,0.295-0.442,0.758-0.442,1.6v10.503h-1.031l-7.325-8.967v7.367
	c0,0.842,0.126,1.284,0.463,1.6h-1.642c0.337-0.295,0.442-0.758,0.442-1.6V73.49c0-0.842-0.105-1.284-0.442-1.6h1.515l7.283,8.693
	V73.49C98.821,72.648,98.716,72.185,98.379,71.89"></path>
                        <polygon fill="#ffffff" points="66.049,50.821 66.049,24.511 72.637,27.626 72.637,46.864 "></polygon>
                        <polygon fill="#ffffff" points="29.215,27.668 35.824,24.511 35.824,50.821 29.215,46.864 "></polygon>
                        <path fill="#ffffff" d="M29.215,4.283l9.451,8.251l12.271-8.293l12.418,8.272l9.282-8.272v0.295v10.692l0,0v0.421
	c-23.7-6.272-43.422,0-43.422,0V4.283z"></path>
                        <path fill="#ffffff" d="M54.241,15.755c8.356,0.337,14.902,1.852,18.396,2.863v5.851L54.241,15.755z"></path>
                        <polygon fill="#ffffff" points="63.208,41.77 60.156,43.622 52.347,39.013 52.347,35.687 56.956,32.972 56.956,25.689
	63.208,24.174 "></polygon>
                        <polygon fill="#ffffff" points="52.347,51.663 63.208,45.075 63.208,52.526 52.347,59.03 "></polygon>
                        <polygon fill="#ffffff" points="44.454,45.285 50.937,41.475 57.419,45.285 50.937,49.221 "></polygon>
                        <polygon fill="#ffffff" points="47.737,31.372 47.737,23.458 41.297,21.901 50.937,17.333 60.577,21.901 54.115,23.458
	54.115,31.372 50.937,33.246 "></polygon>
                        <polygon fill="#ffffff" points="49.505,35.687 49.505,39.013 41.718,43.622 38.666,41.77 38.666,24.174 44.896,25.689
	44.896,32.972 "></polygon>
                        <path fill="#ffffff" d="M29.215,18.659c6.525-1.852,12.776-2.694,18.459-2.926l-18.459,8.798V18.659z"></path>
                        <polygon fill="#ffffff" points="49.505,59.03 38.666,52.526 38.666,45.075 49.505,51.663 "></polygon>
</svg>