<svg width="45" height="45" viewBox="0 0 45 45" fill="none" xmlns="http://www.w3.org/2000/svg">
<rect width="45" height="45" fill="#292828"/>
<path d="M22.8281 15H22.1875V10.1602C22.138 10.2096 22.0651 10.2669 21.9688 10.332C21.875 10.3945 21.7682 10.457 21.6484 10.5195C21.5312 10.582 21.4062 10.6406 21.2734 10.6953C21.1432 10.75 21.0156 10.793 20.8906 10.8242V10.1758C21.0312 10.1367 21.1797 10.0846 21.3359 10.0195C21.4948 9.95182 21.6497 9.8776 21.8008 9.79688C21.9544 9.71354 22.099 9.6276 22.2344 9.53906C22.3698 9.44792 22.487 9.35938 22.5859 9.27344H22.8281V15Z" fill="white"/>
<path d="M23.0156 32.8672C23.0156 32.6953 22.9883 32.5456 22.9336 32.418C22.8815 32.2904 22.8086 32.1849 22.7148 32.1016C22.6237 32.0156 22.5156 31.9518 22.3906 31.9102C22.2656 31.8685 22.1302 31.8477 21.9844 31.8477C21.8594 31.8477 21.737 31.8646 21.6172 31.8984C21.4974 31.9323 21.3802 31.9792 21.2656 32.0391C21.1536 32.099 21.0443 32.1706 20.9375 32.2539C20.8333 32.3372 20.7357 32.4297 20.6445 32.5312V31.8438C20.8242 31.6693 21.0247 31.5365 21.2461 31.4453C21.4701 31.3516 21.7422 31.3047 22.0625 31.3047C22.2917 31.3047 22.5039 31.3385 22.6992 31.4062C22.8945 31.4714 23.0638 31.5677 23.207 31.6953C23.3503 31.8229 23.4622 31.9805 23.543 32.168C23.6263 32.3555 23.668 32.5703 23.668 32.8125C23.668 33.0339 23.6419 33.2344 23.5898 33.4141C23.5404 33.5938 23.4635 33.763 23.3594 33.9219C23.2578 34.0807 23.1289 34.2331 22.9727 34.3789C22.8164 34.5247 22.6328 34.6732 22.4219 34.8242C22.1589 35.0117 21.9414 35.1719 21.7695 35.3047C21.6003 35.4375 21.4648 35.5625 21.3633 35.6797C21.2643 35.7943 21.194 35.9102 21.1523 36.0273C21.1133 36.1419 21.0938 36.2747 21.0938 36.4258H23.8828V37H20.4258V36.7227C20.4258 36.4831 20.4518 36.2721 20.5039 36.0898C20.556 35.9076 20.6419 35.7344 20.7617 35.5703C20.8815 35.4062 21.0378 35.2422 21.2305 35.0781C21.4258 34.9141 21.6641 34.7292 21.9453 34.5234C22.1484 34.3776 22.3177 34.2383 22.4531 34.1055C22.5911 33.9727 22.7018 33.8398 22.7852 33.707C22.8685 33.5742 22.9271 33.4401 22.9609 33.3047C22.9974 33.1667 23.0156 33.0208 23.0156 32.8672Z" fill="white"/>
</svg>
